<?xml version="1.0" encoding="UTF-8"?>
<svg id="Layer_1" data-name="Layer 1" xmlns="http://www.w3.org/2000/svg" viewBox="0 0 959.96 846.75">
  <defs>
    <style>
      .cls-1 {
        fill: #e60e95;
        stroke: #e60e95;
        stroke-miterlimit: 10;
        stroke-width: 16px;
      }
    </style>
  </defs>
  <path class="cls-1" d="M63.96,432.28c-.31-27.45.98-54.99,2.91-82.36,3.64-51.74,9.96-104.19,25.38-153.88,9.18-29.59,22.93-57.99,37.67-85.18,12.07-22.26,25.65-44.86,44.74-61.86,11.84-10.55,27.92-18.73,44.18-15.18,20.89,4.56,37.36,26.1,49.95,41.81,15.82,19.74,29.05,41.99,46.59,60.29,9.35,9.75,21.15,17.55,32.31,25.06,4.34,2.91,8.77,5.9,13.72,7.67,15.22,5.44,21.77-18.77,6.66-24.17,2.42.86,2.67,1.46.23-.13-2.9-1.89-5.9-3.61-8.77-5.56-9.97-6.75-20.16-13.67-28.3-22.61-16.16-17.74-28.96-38.49-43.9-57.24-15.08-18.92-32.79-39.05-56.17-47.54-18.8-6.83-40.12-2.8-57.04,7.1-20.76,12.14-36.32,32.02-49.32,51.81-18.96,28.87-34.05,60.7-47.22,92.57-21,50.82-28.63,107.2-33.71,161.59-3.34,35.76-5.4,71.87-4.99,107.81.18,16.12,25.25,16.16,25.07,0h0Z"/>
  <path class="cls-1" d="M398.17,177.44c20.2.97,40.41,1.68,60.63,2.19,26.84.68,54.54,2.32,81.27-.99,29.03-3.6,53.08-18.37,74.19-38.07,27.23-25.4,52.63-52.9,83.25-74.39,23.62-16.58,53.63-32.57,80.86-24.03,19.86,6.24,36.99,24.67,49.4,42.69,21.32,30.98,35.93,66.37,48.39,101.68,17.88,50.67,32.84,103.22,41.78,156.23,16.1,95.4,13.36,199.57-20.99,290.92-12.1,32.19-29.21,61.39-55.37,84.11-33.96,29.49-77.11,48.07-119.78,60.91-79.84,24.02-164.02,24.41-246.57,30.49-80.76,5.94-163.85,9.31-243.22-9.74-80.44-19.31-160.65-67.87-188.39-150.03-17.83-52.81-11.76-111.44,9.31-162.42-1.24,3,1.25-2.78,1.86-4.13.38-.84.78-1.66,1.2-2.48,7.32-14.34-14.3-27.04-21.64-12.65-20.14,39.45-28.7,87.81-25.79,131.66,5.9,88.99,65.09,161.42,144.24,198.87,78.39,37.09,167.7,42.66,253.13,39.87,40.15-1.31,80.17-4.75,120.21-7.85,41.72-3.23,83.54-3.89,124.98-10.17,49.63-7.52,98.75-21.08,144.02-43.01,37.83-18.33,73.43-43.63,97.24-78.81,21.49-31.75,34.57-69.49,43.56-106.5,11.85-48.77,16.66-99.41,15.97-149.54-.81-59.29-9.88-117.91-25.06-175.16-12.82-48.36-27.74-96.48-48.43-142.13s-56.65-109.57-115.56-110.46c-39.94-.6-76.41,26.9-105.44,51.36-15.38,12.96-29.87,26.92-44.25,40.96-12.29,12-24.44,24.69-38.94,34.06-10.25,6.63-22.13,9.41-33.81,12.52-.71.19-1.45.27-2.17.41-1.99.39,3.29-.37-.39.05-2.68.31-5.38.49-8.08.65-6.4.38-12.82.52-19.23.6-31.36.41-62.76-.68-94.1-1.93-6.09-.24-12.18-.5-18.27-.79-16.12-.77-16.08,24.29,0,25.07h0Z"/>
  <path class="cls-1" d="M368.08,774.51c31.58-9.55,64.08-16.6,96.46-22.76,68.16-12.96,137.85-20.29,207.26-16.6,16.12.86,16.07-24.21,0-25.07-70.62-3.75-141.63,3.93-211.01,16.95-33.36,6.26-66.85,13.48-99.38,23.31-15.4,4.66-8.84,28.86,6.66,24.17h0Z"/>
  <path class="cls-1" d="M629.83,591.17c.72,19.91-12.16,35.94-27.01,47.83-21.59,17.29-48.64,27.56-75.23,34.16-58.41,14.5-129.56,14.49-183.88-14.46-16.98-9.05-35.38-22.71-39.74-42.64-4.06-18.53,6.78-35.31,19.76-47.51,43.12-40.53,113.46-50.77,170.07-48.35,32.11,1.37,65.59,7.41,94.32,22.41,18.73,9.78,39.99,25.6,41.71,48.56,1.2,15.99,26.28,16.12,25.07,0-4.57-60.86-77.99-85.8-128.75-92.98-68.81-9.74-151.22-.4-208.2,42.7-20.12,15.22-37.43,36.07-39.69,62.1-2.11,24.36,11.23,46.7,29.52,61.77,53.26,43.89,134.32,48.12,199.52,37.98,37.4-5.82,76.07-18.05,106.71-40.94,22.6-16.88,41.95-40.99,40.87-70.63-.58-16.08-25.65-16.16-25.07,0Z"/>
  <circle class="cls-1" cx="283.29" cy="461.52" r="18.8"/>
  <circle class="cls-1" cx="630.03" cy="465.7" r="18.8"/>
  <ellipse class="cls-1" cx="412.79" cy="608.78" rx="14.62" ry="19.84" transform="translate(-125 106.99) rotate(-12.84)"/>
  <ellipse class="cls-1" cx="496.84" cy="604.91" rx="19.84" ry="14.62" transform="translate(-134.17 1068.15) rotate(-86.89)"/>
</svg>