<?xml version="1.0" encoding="UTF-8"?>
<svg id="Layer_2" data-name="Layer 2" xmlns="http://www.w3.org/2000/svg" viewBox="0 0 907.5 1440.47">
  <defs>
    <style>
      .cls-1 {
        fill: #fff;
      }
    </style>
  </defs>
  <path class="cls-1" d="M251.15,724.29c-.15-13.42.48-26.88,1.42-40.26,1.78-25.29,4.87-50.93,12.41-75.23,4.49-14.47,11.21-28.35,18.41-41.64,5.9-10.88,12.54-21.93,21.87-30.24,5.79-5.16,13.65-9.16,21.6-7.42,10.21,2.23,18.27,12.76,24.42,20.44,7.73,9.65,14.2,20.53,22.78,29.47,4.57,4.77,10.34,8.58,15.8,12.25,2.12,1.42,4.29,2.88,6.71,3.75,7.44,2.66,10.64-9.17,3.26-11.82,1.18.42,1.31.72.11-.06-1.42-.92-2.88-1.77-4.29-2.72-4.87-3.3-9.86-6.68-13.84-11.05-7.9-8.67-14.16-18.82-21.46-27.98-7.37-9.25-16.03-19.09-27.46-23.24-9.19-3.34-19.61-1.37-27.88,3.47-10.15,5.94-17.76,15.65-24.11,25.33-9.27,14.12-16.65,29.67-23.08,45.25-10.27,24.84-13.99,52.41-16.48,79-1.63,17.48-2.64,35.14-2.44,52.7.09,7.88,12.34,7.9,12.25,0h0Z"/>
  <path class="cls-1" d="M414.53,599.71c9.87.47,19.76.82,29.64,1.07,13.12.33,26.66,1.14,39.73-.48,14.19-1.76,25.95-8.98,36.27-18.61,13.31-12.42,25.73-25.86,40.7-36.37,11.55-8.11,26.22-15.92,39.53-11.74,9.71,3.05,18.08,12.06,24.15,20.87,10.42,15.15,17.56,32.45,23.65,49.71,8.74,24.77,16.05,50.46,20.43,76.37,7.87,46.64,6.53,97.56-10.26,142.22-5.92,15.74-14.28,30.01-27.07,41.12-16.6,14.42-37.69,23.5-58.55,29.78-39.03,11.74-80.18,11.93-120.54,14.9-39.48,2.91-80.1,4.55-118.9-4.76s-78.54-33.18-92.1-73.35c-8.72-25.82-5.75-54.48,4.55-79.4-.61,1.47.61-1.36.91-2.02.18-.41.38-.81.59-1.21,3.58-7.01-6.99-13.22-10.58-6.18-9.84,19.28-14.03,42.93-12.61,64.36,2.88,43.51,31.82,78.91,70.51,97.22,38.32,18.13,81.98,20.86,123.75,19.49,19.63-.64,39.19-2.32,58.76-3.84,20.4-1.58,40.84-1.9,61.1-4.97,24.26-3.68,48.28-10.3,70.4-21.03,18.49-8.96,35.9-21.33,47.54-38.53,10.51-15.52,16.9-33.97,21.3-52.07,5.79-23.84,8.14-48.6,7.81-73.11-.4-28.98-4.83-57.64-12.25-85.63-6.27-23.64-13.56-47.17-23.67-69.48-10.36-22.86-27.69-53.56-56.49-54-19.52-.3-37.35,13.15-51.54,25.11-7.52,6.34-14.6,13.16-21.63,20.02-6.01,5.86-11.95,12.07-19.04,16.65-5.01,3.24-10.82,4.6-16.53,6.12-.35.09-.71.13-1.06.2-.97.19,1.61-.18-.19.02-1.31.15-2.63.24-3.95.32-3.13.19-6.27.25-9.4.29-15.33.2-30.68-.33-46-.94-2.98-.12-5.95-.24-8.93-.39-7.88-.38-7.86,11.88,0,12.25h0Z"/>
  <path class="cls-1" d="M399.82,891.6c15.44-4.67,31.33-8.12,47.16-11.13,33.32-6.34,67.39-9.92,101.32-8.11,7.88.42,7.86-11.84,0-12.25-34.52-1.83-69.24,1.92-103.15,8.28-16.31,3.06-32.68,6.59-48.58,11.4-7.53,2.28-4.32,14.11,3.26,11.82h0Z"/>
  <path class="cls-1" d="M527.78,801.97c.35,9.73-5.94,17.57-13.21,23.38-10.55,8.45-23.78,13.47-36.78,16.7-28.55,7.09-63.34,7.09-89.89-7.07-8.3-4.43-17.29-11.1-19.43-20.85-1.98-9.06,3.31-17.26,9.66-23.23,21.08-19.81,55.47-24.82,83.14-23.64,15.7.67,32.06,3.62,46.11,10.96,9.16,4.78,19.55,12.51,20.39,23.74.59,7.81,12.85,7.88,12.25,0-2.24-29.75-38.12-41.94-62.94-45.45-33.64-4.76-73.93-.2-101.78,20.87-9.84,7.44-18.3,17.63-19.4,30.36-1.03,11.91,5.49,22.83,14.43,30.2,26.04,21.45,65.67,23.52,97.54,18.57,18.28-2.84,37.19-8.82,52.16-20.01,11.05-8.25,20.51-20.04,19.98-34.53-.29-7.86-12.54-7.9-12.25,0Z"/>
  <circle class="cls-1" cx="358.37" cy="738.59" r="9.19"/>
  <circle class="cls-1" cx="527.87" cy="740.63" r="9.19"/>
  <ellipse class="cls-1" cx="421.68" cy="810.58" rx="7.15" ry="9.7" transform="translate(-169.64 114.02) rotate(-12.84)"/>
  <ellipse class="cls-1" cx="462.76" cy="808.69" rx="9.7" ry="7.15" transform="translate(-369.87 1226.83) rotate(-86.89)"/>
  <path class="cls-1" d="M454,1440c-60.98,0-120.26-12.05-176.19-35.81-53.94-22.92-102.43-55.68-144.13-97.37-41.7-41.7-74.46-90.19-97.37-144.13C12.55,1106.75.5,1047.48.5,986.5V453.5c0-60.98,12.05-120.25,35.81-176.19,22.92-53.94,55.68-102.43,97.37-144.13,41.7-41.7,90.19-74.46,144.13-97.37C333.75,12.05,393.02,0,454,0s120.25,12.05,176.19,35.81c53.94,22.92,102.43,55.68,144.13,97.37,41.7,41.7,74.46,90.19,97.37,144.13,23.76,55.93,35.81,115.21,35.81,176.19v533c0,60.98-12.05,120.26-35.81,176.19-22.92,53.94-55.68,102.43-97.37,144.13-41.7,41.7-90.19,74.46-144.13,97.37-55.93,23.76-115.21,35.81-176.19,35.81ZM454,14c-59.08,0-116.52,11.67-170.71,34.7-52.28,22.21-99.28,53.97-139.7,94.39-40.42,40.42-72.18,87.42-94.39,139.7-23.02,54.19-34.7,111.63-34.7,170.71v533c0,59.09,11.67,116.52,34.7,170.71,22.21,52.28,53.97,99.28,94.39,139.7,40.42,40.42,87.42,72.18,139.7,94.39,54.19,23.02,111.63,34.7,170.71,34.7s116.52-11.67,170.71-34.7c52.28-22.21,99.28-53.97,139.7-94.39,40.42-40.42,72.18-87.42,94.39-139.7,23.02-54.19,34.7-111.62,34.7-170.71V453.5c0-59.09-11.67-116.52-34.7-170.71-22.21-52.28-53.97-99.28-94.39-139.7-40.42-40.42-87.42-72.18-139.7-94.39-54.19-23.02-111.63-34.7-170.71-34.7Z"/>
  <path class="cls-1" d="M454,1410c-56.92,0-112.26-11.25-164.46-33.42-50.38-21.4-95.68-52.01-134.65-90.98-38.96-38.96-69.57-84.26-90.98-134.65-22.18-52.2-33.42-107.53-33.42-164.46V453.5c0-56.92,11.24-112.25,33.42-164.46,21.4-50.38,52.01-95.68,90.98-134.65s84.26-69.57,134.65-90.98c52.2-22.18,107.53-33.42,164.46-33.42s112.26,11.24,164.46,33.42c50.38,21.4,95.68,52.01,134.65,90.98,38.96,38.96,69.57,84.26,90.98,134.65,22.18,52.2,33.42,107.53,33.42,164.46v533c0,56.92-11.25,112.25-33.42,164.46-21.4,50.38-52.01,95.68-90.97,134.65s-84.26,69.57-134.65,90.98c-52.2,22.18-107.53,33.42-164.46,33.42ZM454,44c-225.8,0-409.5,183.7-409.5,409.5v533c0,225.8,183.7,409.5,409.5,409.5h0c225.8,0,409.5-183.7,409.5-409.5V453.5c0-225.8-183.7-409.5-409.5-409.5Z"/>
</svg>