<?xml version="1.0" encoding="UTF-8"?>
<svg id="Layer_2" data-name="Layer 2" xmlns="http://www.w3.org/2000/svg" viewBox="0 0 907.5 1440.47">
  <defs>
    <style>
      .cls-1 {
        fill: #fff;
      }
    </style>
  </defs>
  <g>
    <path class="cls-1" d="M175.27,373.46c1.06-.2,1.97.06,2.75.76.87.61,1.44,1.35,1.69,2.22.19.46.34.87.46,1.24.12.37.18.75.18,1.15.16.78.03,1.6-.38,2.47-.11.36-.28.68-.49.94-.22.27-.46.52-.74.76-.28.25-.57.5-.89.77-.32.27-.64.51-.98.74-.42.27-.79.52-1.13.74-.34.23-.69.41-1.07.56-.4.21-.79.39-1.16.53-.38.15-.73.3-1.04.47l-1.52.72-23.68,11.69,18.31,5.44.82.26c.24.08.49.19.74.33.25.15.52.3.8.45.73.43,1.36.86,1.89,1.29.32.24.57.5.75.78.17.29.34.59.51.91.39.85.48,1.74.26,2.67.02,1-.14,1.87-.46,2.59-.33.73-.8,1.43-1.41,2.1-.55.49-1.33.84-2.32,1.06-.28.05-.46.09-.54.13-.06-.02-.29-.02-.69-.02-.72.17-1.38.16-1.98-.03-.38-.05-.73-.11-1.04-.18-.31-.06-.66-.12-1.04-.18-.26-.01-.51-.06-.75-.14-.24-.08-.48-.15-.72-.23-.28-.15-.53-.27-.74-.33-.21-.07-.47-.15-.77-.24l-7.19-2.16-13.35-4.09c-3.87-1.21-8.06-2.43-12.59-3.65-2.19-.62-4.14-1.2-5.83-1.73-1.69-.53-3.59-1.16-5.68-1.88l-.36-.11c-.63-.33-1.26-.59-1.89-.79-.63-.2-1.24-.42-1.83-.67-1.21-.38-2.33-1.03-3.37-1.95-.79-.65-1.32-1.51-1.58-2.59-.15-.58-.2-1.11-.15-1.59.05-.48.1-1.01.15-1.59.13-.42.29-.82.47-1.2.18-.37.36-.73.54-1.08.37-.75.93-1.37,1.68-1.86.24-.12.5-.22.79-.3.29-.07.63-.12,1.03-.12.58-.15,1.34-.14,2.28.02.38.05.76.12,1.13.21.37.08.77.19,1.19.32l3.72,1.17,11.09,3.38c-.54-1.23-1.12-2.46-1.73-3.68-.61-1.22-1.29-2.45-2.03-3.67-1.18-2.16-2.32-4.3-3.42-6.4-1.1-2.1-2.18-4.22-3.24-6.34l-.19-.36c-.33-.63-.64-1.28-.94-1.94-.29-.66-.57-1.29-.84-1.91-.74-1.23-1.12-2.57-1.12-4.04-.28-1.02-.18-2.08.3-3.19.23-.53.51-.99.83-1.38.32-.4.7-.76,1.14-1.09.4-.21.75-.43,1.06-.67.31-.23.64-.4,1-.48.57-.35,1.3-.45,2.19-.31.67.21,1.23.52,1.7.93.25.28.49.55.74.83.25.28.48.58.71.92.27.42.52.79.74,1.13.23.34.44.7.65,1.1.23.34.42.68.57,1.03.16.35.35.69.57,1.03l.81,1.55,12,22.38c1.19-.62,2.44-1.28,3.75-1.96,1.31-.68,2.58-1.33,3.8-1.95,1.22-.61,2.36-1.18,3.42-1.71,1.06-.53,1.95-.98,2.67-1.35,2.2-1.1,4.37-2.15,6.51-3.14,2.14-.99,4.28-1.94,6.42-2.86l.36-.19c.64-.33,1.28-.63,1.92-.89.65-.26,1.27-.5,1.87-.71,1.31-.58,2.63-.87,3.95-.85Z"/>
    <path class="cls-1" d="M131,331.44c.5-4.5,1.62-8.25,3.35-11.24,1.73-2.99,3.9-5.35,6.52-7.08,2.62-1.73,5.52-2.87,8.71-3.42,3.19-.55,6.5-.63,9.92-.25,2.58.24,5.17.74,7.77,1.48,2.6.75,5.1,1.68,7.49,2.78,2.39,1.1,4.65,2.35,6.78,3.75,2.13,1.4,4.01,2.87,5.65,4.4,1.13,1,2.11,1.99,2.96,2.99.84,1,1.65,2.08,2.4,3.24,1.71,2.64,2.77,5.47,3.16,8.47.39,3.01.23,5.99-.49,8.96-.46,2.04-1.2,4.01-2.2,5.92-1,1.91-2.21,3.67-3.64,5.29-1.43,1.62-3.04,3.06-4.85,4.31-1.8,1.25-3.77,2.23-5.9,2.92-2.58.89-5.27,1.34-8.08,1.34-2.8,0-5.59-.31-8.36-.94-2.77-.62-5.44-1.48-8.02-2.57-2.57-1.09-4.94-2.29-7.12-3.61-2-1.23-4.03-2.77-6.07-4.62-2.04-1.85-3.85-3.96-5.43-6.32-1.57-2.36-2.8-4.88-3.68-7.56-.88-2.68-1.17-5.44-.87-8.27ZM177.31,329.98c-2.31-2.02-5.16-3.82-8.55-5.4s-6.8-2.63-10.22-3.15c-2.12-.29-4.11-.33-5.97-.09-1.86.23-3.47.8-4.85,1.69-1.38.9-2.5,2.2-3.36,3.89s-1.31,3.85-1.35,6.45c0,1.56.3,3.05.93,4.47.63,1.42,1.49,2.74,2.57,3.96s2.28,2.36,3.59,3.42c1.31,1.06,2.63,1.96,3.96,2.7,1.41.86,2.94,1.67,4.58,2.42,1.64.76,3.34,1.39,5.11,1.9,1.77.51,3.51.84,5.24,1,1.73.17,3.4.05,5.02-.33,2.44-.61,4.48-1.73,6.11-3.35,1.64-1.62,2.72-3.5,3.24-5.65.9-3.45.04-6.87-2.58-10.25-.9-1.31-2.05-2.53-3.46-3.67Z"/>
    <path class="cls-1" d="M233.53,284.64c.54.34.98.75,1.32,1.25.22.33.37.66.44.99.07.33.1.7.11,1.1-.04.68-.19,1.45-.44,2.29-.21.48-.42.94-.63,1.37-.21.43-.52.81-.93,1.14-.67.77-1.51,1.24-2.52,1.42-1.36.32-2.68.42-3.96.32-.6-.06-1.26-.13-1.99-.21-.73-.08-1.47-.21-2.22-.38l-22.33-3.81c-.31.4-.6.81-.89,1.24-.28.42-.55.85-.81,1.29-.71,1.13-1.44,2.15-2.2,3.04-.76.89-1.5,1.86-2.22,2.91l-1.1,1.43,13.66,10.45c.4.31.77.61,1.1.9.33.3.7.6,1.1.9.25.19.57.46.95.79.38.33.73.66,1.04.98.48.52.87,1.18,1.18,1.98.31.79.43,1.65.38,2.56-.16,1.56-.96,2.97-2.42,4.25-.65.54-1.38.97-2.2,1.31-.3.09-.63.12-.97.1-.34-.02-.68-.08-1-.17-.33-.09-.66-.21-1-.34-.33-.14-.67-.25-.99-.34-.62-.23-1.15-.52-1.61-.87l-42.85-32.79c-.3-.23-.61-.48-.91-.76-.31-.27-.57-.53-.78-.78-.51-.47-.93-1.07-1.26-1.8-.49-.61-.72-1.19-.71-1.74-.07-.53.02-1.2.28-2,.25-.8.87-1.79,1.84-2.96,1.78-2.22,3.52-4.44,5.21-6.66s3.44-4.39,5.23-6.52c1.22-1.38,2.56-2.8,4.04-4.26,1.48-1.46,3.03-2.68,4.66-3.67,1.04-.64,2.03-1.2,2.96-1.68,1.29-.53,2.39-.88,3.32-1.05,2.96-.53,5.91-.38,8.87.45,2.96.83,5.59,2.13,7.9,3.9,2.72,2.08,4.71,4.62,6,7.64,1.28,3.01,1.4,6.35.35,10.02.02.18-.02.36-.13.56-.11.2-.18.36-.21.5l19.27,3.74,1.73.25c.28.05.6.1.97.14.37.04.71.11,1.04.2.37.04.75.12,1.15.22.4.11.78.18,1.15.22.82.39,1.49.71,2.02.95ZM192.24,282.95c.69-.91,1.2-1.9,1.5-2.98.31-1.08.45-2.17.41-3.27-.03-1.1-.24-2.16-.62-3.17-.38-1.01-.98-1.87-1.8-2.57-2.36-2.12-4.73-2.9-7.12-2.34-2.39.57-4.57,2.04-6.56,4.43-1.22,1.38-2.49,2.94-3.82,4.68-1.33,1.73-2.59,3.38-3.78,4.94,2.1,1.53,4.21,3.12,6.33,4.78,2.12,1.66,4.64,3.61,7.55,5.84l7.91-10.34Z"/>
    <path class="cls-1" d="M211.23,234.63l9.97,11.1,2.79-2.58c1.87-1.81,3.54-3.4,5.03-4.77,1.49-1.37,3.17-2.87,5.02-4.5l.35-.32c.56-.52,1.12-1.01,1.67-1.48.56-.47,1.09-.94,1.6-1.41.6-.47,1.21-.88,1.83-1.24.62-.36,1.25-.7,1.89-1.03,1.05-.45,2.09-.63,3.12-.55,1.02.18,1.88.64,2.57,1.38.22.23.46.5.74.8.28.3.48.61.6.93.38.6.5,1.34.38,2.23.07.54-.16,1.18-.68,1.92-.43.75-.93,1.42-1.49,2.02-.52.74-1.11,1.41-1.76,2.01l-3.28,3.03-12.86,11.98,12.48,13.82,14.03-12.67,3.28-3.03c.37-.34.72-.67,1.05-.97.33-.3.65-.56.97-.77.46-.25.85-.5,1.17-.76.32-.26.67-.47,1.03-.63.73-.33,1.43-.5,2.11-.52.89.04,1.65.25,2.26.63.26.19.52.4.78.64.26.23.49.51.71.83.69.74,1.08,1.64,1.17,2.67.04,1.17-.22,2.19-.8,3.06-.59,1.32-1.47,2.52-2.63,3.59-.47.52-.98,1.04-1.54,1.55-.56.52-1.07,1.03-1.54,1.55l-.42.39c-3.55,3.44-7.32,6.92-11.32,10.43-.93.86-1.69,1.53-2.27,2.03-.58.49-1.09.94-1.54,1.35-.44.41-.9.83-1.36,1.26-.47.43-1.07.99-1.82,1.67-.99,1.08-2.04,1.71-3.17,1.89-.81.15-1.62.07-2.41-.23-.27-.01-.47-.09-.6-.23-.13-.05-.25-.08-.33-.08-.09,0-.2-.03-.33-.08-.31-.15-.6-.33-.88-.54-.28-.21-.53-.44-.75-.67-.26-.19-.51-.39-.75-.6-.24-.21-.49-.41-.75-.6l-1.03-1.12c-.17-.19-.33-.38-.48-.59-.15-.21-.31-.4-.48-.59l-5.02-5.45-9.13-10.19-8.56-9.29c-1.55-1.68-2.91-3.18-4.09-4.5-1.18-1.32-2.45-2.78-3.82-4.36l-.32-.35c-.43-.55-.83-1.06-1.21-1.53-.38-.46-.79-.93-1.22-1.39-.81-.97-1.39-2.12-1.74-3.43-.16-.54-.26-1.05-.31-1.53-.05-.47.03-.97.23-1.5.31-1.06.84-1.94,1.59-2.62.37-.34.67-.58.9-.7l-.06-.07c.84-.77,1.51-1.4,2.03-1.87.51-.47,1.01-.93,1.5-1.38.49-.45,1-.94,1.54-1.48.54-.54,1.29-1.26,2.27-2.16,1.82-1.76,3.57-3.42,5.24-4.96,1.68-1.55,3.42-3.11,5.23-4.7l.28-.26c.56-.42,1.11-.9,1.67-1.41.56-.51,1.12-.98,1.67-1.41.51-.47,1.08-.89,1.7-1.24.62-.35,1.27-.67,1.96-.96,1.01-.5,2.02-.7,3.05-.62,1.02.27,1.83.72,2.43,1.38.26.28.5.55.74.8.24.26.41.54.54.86.38.51.55,1.26.51,2.24-.1.27-.19.56-.27.9-.08.33-.22.68-.41,1.03-.19.35-.43.68-.71.98-.28.3-.54.61-.78.91-.29.44-.58.79-.88,1.07-.3.28-.64.59-1.01.93l-3.14,2.9-13.9,12.95.19.21Z"/>
    <path class="cls-1" d="M320.91,215.36c.25.29.49.57.7.85.21.28.43.61.67.98.4.65.58,1.35.54,2.13,0,.37-.05.76-.17,1.17-.12.41-.32.81-.59,1.21-.88,1.59-2.14,2.74-3.78,3.46-.89.25-1.78.32-2.67.2-.17-.04-.3-.06-.37-.05-.07,0-.17-.03-.29-.1-.09-.02-.18-.05-.29-.1-.11-.05-.23-.06-.37-.05-.44-.1-.81-.22-1.12-.37-.31-.14-.63-.3-.96-.47-.28-.2-.56-.38-.84-.54-.29-.16-.59-.32-.92-.49-.24-.15-.47-.28-.7-.41-.23-.12-.43-.27-.62-.46-.52-.35-.92-.7-1.21-1.04l-4.15-2.9c-3.71,2.31-7.4,4.62-11.07,6.93-3.67,2.32-7.38,4.6-11.12,6.85l.76,5.01c.02.28.09.54.2.77.11.23.17.49.2.77.02.28.06.54.09.78.04.24.07.5.09.78,0,.37.02.72.03,1.04.01.33.03.67.03,1.04.06.34.08.67.07,1.02,0,.34-.07.73-.17,1.17-.08.12-.11.24-.12.35,0,.11-.02.21-.04.3.01.14,0,.24-.04.3-.04.06-.08.18-.12.35-.29.85-.75,1.62-1.37,2.3-1.37,1.15-2.97,1.77-4.78,1.85-.48.07-.93.07-1.35,0-.42-.07-.79-.2-1.12-.37-.71-.3-1.27-.78-1.67-1.42-.23-.38-.43-.72-.59-1.03-.16-.31-.31-.65-.46-1-.19-.55-.36-1.12-.5-1.7l-.21-.88-8.87-51.75-.32-1.59c-.09-.39-.14-.77-.15-1.14,0-.37-.07-.77-.2-1.22-.17-.87-.25-1.67-.27-2.41-.04-.42-.03-.83.01-1.24.05-.4.1-.8.14-1.21.06-.63.3-1.26.72-1.9.59-.74,1.38-1.41,2.37-2.03,1-.62,1.95-1.03,2.87-1.23.76-.1,1.43-.03,2.02.2.68.25,1.43.57,2.26.94.66.34,1.34.77,2.04,1.3.34.31.68.55,1,.72.33.17.65.38.95.64l1.29.99,42.45,30.9.69.58c.46.38.9.79,1.31,1.2ZM289.51,207.46c-1.67-1.12-3.38-2.3-5.15-3.51-1.76-1.22-3.58-2.44-5.46-3.66-.52-.35-1.04-.71-1.57-1.09-.53-.38-1.06-.74-1.57-1.09.14.58.26,1.2.36,1.84.1.65.2,1.28.28,1.89.26,2.22.55,4.4.86,6.51.31,2.12.6,4.18.87,6.17l.75,4.45,14.29-8.87-3.66-2.65Z"/>
    <path class="cls-1" d="M373.23,194.84c.32,1.03.59,2.15.8,3.35.21,1.2-.02,2.34-.7,3.41-.49.86-1.16,1.52-2,1.97-.85.45-1.74.74-2.67.85-.94.11-1.88.1-2.81-.06-.94-.15-1.77-.47-2.49-.94-2.95-1.73-5.77-3.6-8.45-5.6-2.68-2-5.38-4.01-8.11-6.03l-11.72-8.48c-1.61-1.22-3.35-2.61-5.22-4.17-1.87-1.56-3.73-2.98-5.56-4.25l12.51,34.07.3.8c.36.95.54,1.94.56,2.98.02,1.04-.23,2.03-.76,2.98-.41.7-1.06,1.31-1.94,1.85-1.37.85-2.63,1.23-3.79,1.12-1.16-.11-2.17-.47-3.05-1.09-.88-.62-1.62-1.44-2.24-2.46-.62-1.02-1.07-2.08-1.35-3.19l-.57-1.51-2.43-7-4.76-12.93c-.66-1.92-1.35-3.87-2.1-5.86-.75-1.99-1.51-4.02-2.29-6.09-1.02-2.52-2.02-5.23-3-8.11-.98-2.88-1.88-5.58-2.7-8.12-.4-1.41-.5-2.69-.33-3.84-.08-.92.28-1.86,1.06-2.84.5-.66,1.24-1.24,2.23-1.75.99-.51,1.91-.82,2.75-.93.34,0,.69.03,1.04.07.35.04.71.09,1.07.15.39.13.76.26,1.11.39.36.14.71.31,1.06.52.41.19.79.4,1.15.63.36.24.71.46,1.06.67.31.29.61.55.9.78.29.23.61.45.96.66l1.51,1.05,32.72,24.64-2.21-5.87c-.71-1.9-1.46-3.83-2.24-5.81-.78-1.97-1.6-4.02-2.46-6.13-.94-2.49-1.93-5.16-2.97-8.02-1.04-2.86-1.97-5.55-2.79-8.09-.38-1.01-.52-2.27-.42-3.8,0-.88.28-1.69.81-2.44.53-.74,1.21-1.37,2.03-1.88.82-.51,1.71-.85,2.67-1,.96-.16,1.86-.09,2.71.2.24.11.5.25.77.42.27.17.51.38.75.63.59.66,1.02,1.27,1.3,1.84.49.76.86,1.47,1.1,2.12,2.79,7.41,5.65,14.96,8.58,22.66,2.93,7.7,5.82,15.24,8.67,22.62.31.83.65,1.63,1.01,2.41.36.78.67,1.59.92,2.45Z"/>
    <path class="cls-1" d="M435.66,130.87c2.62,1.96,4.65,4.42,6.09,7.36,1.44,2.94,2.19,5.94,2.25,8.99.04,2.93-.6,5.68-1.93,8.26-1.33,2.59-3.54,4.67-6.62,6.26-2.41,1.33-4.82,2.34-7.24,3.02-2.41.69-5.09,1.31-8.02,1.86-1.31.26-2.42.45-3.33.58-.91.12-1.96.28-3.15.46-.25.03-.68.07-1.28.13-.6.06-1.02.14-1.27.22l1.98,19.56c-.07,1.22-.18,2.47-.34,3.76-.16,1.29-.8,2.34-1.92,3.16-.66.45-1.49.75-2.49.92-1,.16-1.92.23-2.75.18-.9-.04-1.66-.2-2.29-.48-.63-.29-1.18-.85-1.65-1.69-.31-.54-.61-1.17-.91-1.87-.29-.7-.49-1.59-.6-2.66l-5.29-52.27c-.04-.44-.06-.85-.03-1.24.02-.38.05-.77.07-1.15.09-.33.15-.68.18-1.07.02-.38.08-.74.18-1.07.09-.33.21-.63.34-.89.13-.27.31-.51.55-.72.28-.35.74-.68,1.38-1,.64-.32,1.62-.54,2.94-.68l.19-.02c1.94-.32,4.1-.65,6.49-.99,2.38-.34,4.37-.49,5.97-.46.89.04,1.72.03,2.48-.01.76-.04,1.49-.07,2.19-.08.76-.01,1.52-.03,2.29-.04.76-.01,1.53,0,2.3.05.64.06,1.23.1,1.78.11.54,0,1.1.05,1.68.12.52.08,1.08.15,1.69.21.61.07,1.18.23,1.72.49,1.36.24,2.51.61,3.45,1.08.94.48,1.92,1.02,2.93,1.61ZM431.57,147.04c-.09-1.52-.52-2.81-1.3-3.88s-1.8-1.92-3.08-2.55c-1.27-.64-2.69-1.1-4.25-1.38-1.56-.29-3.1-.45-4.63-.49-.38.04-.9.08-1.56.11-.66.04-1.38.08-2.14.12-.76.05-1.47.09-2.14.12-.67.04-1.19.07-1.56.11-.32-.03-.7-.02-1.14.02-.44.05-.95.1-1.51.15.26,1.95.48,3.82.66,5.61s.38,3.73.59,5.81c.05,1.14.13,2.28.25,3.41.12,1.13.23,2.24.34,3.31l5.85-.69c1.51-.15,3.17-.42,4.98-.79,1.81-.37,3.5-.93,5.08-1.66,1.58-.73,2.9-1.69,3.96-2.88,1.06-1.19,1.59-2.67,1.6-4.46Z"/>
    <path class="cls-1" d="M474.25,127.56c4.36-1.22,8.25-1.6,11.68-1.12,3.42.48,6.43,1.6,9.01,3.38,2.58,1.77,4.73,4.04,6.44,6.78,1.71,2.75,3.03,5.78,3.96,9.1.75,2.48,1.26,5.06,1.54,7.76.28,2.69.36,5.35.24,7.98-.12,2.63-.43,5.19-.93,7.69-.5,2.5-1.15,4.8-1.96,6.89-.5,1.42-1.05,2.71-1.66,3.87-.61,1.16-1.31,2.31-2.1,3.45-1.81,2.58-4.03,4.62-6.66,6.12-2.64,1.49-5.47,2.46-8.49,2.91-2.06.33-4.17.4-6.31.19-2.14-.21-4.23-.67-6.27-1.38-2.04-.71-3.98-1.67-5.81-2.87-1.84-1.2-3.48-2.66-4.93-4.37-1.8-2.06-3.22-4.38-4.28-6.98-1.05-2.6-1.81-5.3-2.28-8.1-.46-2.8-.67-5.6-.63-8.4.04-2.79.27-5.44.67-7.95.38-2.32,1.05-4.77,2-7.36.95-2.59,2.22-5.06,3.81-7.4,1.59-2.35,3.47-4.43,5.62-6.25,2.15-1.82,4.6-3.12,7.33-3.91ZM493,169.94c1.01-2.9,1.6-6.22,1.79-9.96.19-3.73-.12-7.29-.92-10.66-.53-2.08-1.24-3.93-2.16-5.57-.91-1.63-2.04-2.92-3.39-3.86-1.35-.94-2.97-1.49-4.87-1.65-1.89-.16-4.06.23-6.49,1.17-1.45.58-2.71,1.43-3.79,2.54-1.08,1.12-1.98,2.41-2.71,3.87-.73,1.46-1.33,3-1.82,4.61-.48,1.61-.82,3.17-1.01,4.68-.26,1.63-.44,3.35-.53,5.15-.09,1.8-.03,3.62.16,5.45.2,1.83.54,3.57,1.04,5.23.5,1.66,1.23,3.17,2.2,4.52,1.48,2.03,3.28,3.5,5.4,4.41,2.12.91,4.27,1.2,6.46.88,3.54-.47,6.38-2.55,8.53-6.24.87-1.32,1.57-2.85,2.1-4.59Z"/>
    <path class="cls-1" d="M556.13,205.06c-.11.63-.33,1.19-.66,1.69-.22.33-.48.59-.76.78-.28.18-.61.36-.98.52-.65.22-1.42.36-2.29.45-.52-.01-1.02-.04-1.51-.07-.48-.03-.95-.18-1.41-.44-.96-.33-1.71-.93-2.26-1.81-.8-1.14-1.4-2.32-1.78-3.55-.17-.57-.36-1.22-.55-1.93-.2-.71-.36-1.45-.48-2.2l-4.84-22.13c-.49-.14-.98-.25-1.48-.36-.5-.1-1-.19-1.5-.27-1.32-.23-2.53-.53-3.64-.91-1.11-.37-2.29-.69-3.53-.97l-1.74-.48-4.57,16.58c-.13.49-.28.94-.42,1.36-.15.42-.29.87-.42,1.36-.08.3-.21.7-.37,1.18-.17.48-.34.92-.52,1.34-.31.64-.77,1.25-1.39,1.83-.62.58-1.36,1.02-2.23,1.31-1.5.44-3.12.23-4.85-.65-.74-.4-1.42-.92-2.04-1.55-.19-.25-.34-.54-.45-.86-.11-.33-.18-.66-.22-1-.04-.34-.06-.69-.05-1.05,0-.36-.02-.71-.06-1.05-.01-.66.05-1.27.2-1.82l14.34-52.02c.1-.37.22-.74.36-1.13.14-.39.28-.73.43-1.02.25-.65.64-1.27,1.2-1.84.39-.68.83-1.12,1.35-1.3.47-.27,1.12-.43,1.96-.49.84-.07,1.98.14,3.43.6,2.73.82,5.44,1.6,8.12,2.34,2.69.74,5.36,1.54,8.01,2.41,1.74.61,3.56,1.33,5.47,2.15,1.91.82,3.62,1.8,5.15,2.95.98.73,1.87,1.44,2.67,2.12.97.99,1.71,1.89,2.22,2.68,1.6,2.54,2.57,5.34,2.91,8.39s.12,5.98-.65,8.79c-.91,3.3-2.52,6.1-4.83,8.42-2.31,2.32-5.37,3.68-9.16,4.08-.16.09-.34.12-.57.09-.22-.03-.4-.03-.54,0l3.75,19.27.42,1.69c.05.28.13.6.23.95.1.36.17.7.21,1.04.1.35.17.74.23,1.15.05.41.13.79.22,1.15-.05.9-.09,1.65-.12,2.23ZM542.22,166.14c1.1.3,2.21.4,3.32.28,1.12-.12,2.18-.4,3.19-.85,1.01-.44,1.91-1.03,2.7-1.77.79-.73,1.36-1.61,1.71-2.63,1.08-2.98.92-5.48-.5-7.48-1.42-2-3.61-3.47-6.57-4.42-1.74-.61-3.66-1.21-5.76-1.79-2.11-.58-4.11-1.13-6-1.65-.63,2.52-1.32,5.07-2.06,7.66-.75,2.59-1.61,5.65-2.58,9.19l12.55,3.46Z"/>
    <path class="cls-1" d="M602.93,224.04c.05,1.08-.33,1.95-1.14,2.61-.72.78-1.53,1.23-2.44,1.37-.48.12-.91.22-1.29.28-.38.06-.77.07-1.17.02-.79.04-1.59-.19-2.39-.72-.34-.16-.63-.37-.86-.62-.23-.25-.45-.53-.65-.84-.21-.31-.42-.64-.64-.99-.22-.35-.42-.71-.59-1.07-.21-.45-.4-.86-.58-1.22-.18-.37-.31-.75-.41-1.14-.15-.42-.27-.83-.36-1.23-.09-.4-.2-.76-.32-1.1l-.5-1.6-8.28-25.07-7.94,17.37-.37.77c-.11.23-.25.46-.43.69-.18.23-.37.47-.56.73-.52.66-1.04,1.22-1.54,1.69-.28.29-.57.5-.88.63-.31.13-.63.26-.97.38-.9.27-1.79.23-2.68-.12-.99-.12-1.83-.4-2.5-.82-.67-.43-1.3-.99-1.88-1.68-.41-.62-.65-1.43-.73-2.45,0-.28-.02-.47-.05-.55.03-.06.06-.28.11-.68-.07-.73.03-1.39.3-1.96.11-.37.21-.71.32-1,.11-.3.21-.63.32-1,.05-.26.13-.5.24-.73.11-.23.22-.46.33-.69.19-.26.34-.49.43-.69.1-.2.21-.44.35-.73l3.13-6.82,5.91-12.66c1.74-3.66,3.53-7.65,5.37-11.96.92-2.09,1.76-3.93,2.52-5.53.76-1.6,1.64-3.39,2.65-5.36l.16-.34c.41-.58.76-1.16,1.05-1.76.29-.6.59-1.17.92-1.72.54-1.14,1.34-2.16,2.4-3.06.75-.7,1.68-1.1,2.78-1.2.59-.07,1.12-.04,1.6.07.47.12.99.24,1.56.37.4.19.77.4,1.12.64.34.23.67.46.99.68.69.47,1.23,1.11,1.61,1.92.09.25.15.53.19.82.03.3.03.64-.02,1.04.07.59-.04,1.35-.34,2.26-.11.37-.23.73-.36,1.09-.14.36-.3.74-.49,1.14l-1.67,3.52-4.89,10.51c1.29-.37,2.59-.77,3.88-1.2,1.29-.44,2.6-.94,3.92-1.5,2.3-.87,4.58-1.7,6.81-2.5,2.24-.79,4.48-1.57,6.73-2.32l.38-.13c.67-.24,1.36-.46,2.05-.66.69-.2,1.36-.39,2.01-.57,1.32-.56,2.7-.75,4.15-.55,1.05-.13,2.08.11,3.12.75.49.3.91.64,1.25,1.02.35.38.65.8.92,1.28.15.42.32.8.51,1.14.19.34.3.69.34,1.06.27.62.27,1.35,0,2.21-.3.63-.69,1.15-1.16,1.55-.31.21-.62.41-.92.61-.31.21-.64.4-1.01.57-.45.21-.86.4-1.22.58-.37.18-.76.34-1.18.49-.37.18-.73.32-1.1.43-.37.11-.73.25-1.1.43l-1.64.59-23.83,8.77c.45,1.27.92,2.59,1.42,3.99s.96,2.74,1.4,4.03c.44,1.29.84,2.5,1.22,3.63.38,1.12.7,2.07.97,2.83.78,2.34,1.52,4.63,2.2,6.88.68,2.25,1.33,4.51,1.94,6.76l.14.38c.24.67.44,1.35.61,2.03.17.68.32,1.33.44,1.95.4,1.38.49,2.72.29,4.03Z"/>
    <path class="cls-1" d="M673.37,240.95c.66,2.1.97,4.18.95,6.25-.02,2.07-.48,4.26-1.38,6.55-1.01,2.53-2.34,4.82-3.98,6.87-1.64,2.05-3.56,3.64-5.74,4.75-2.18,1.11-4.63,1.65-7.33,1.6-2.7-.05-5.6-.89-8.68-2.52-1.7-.82-3.59-1.92-5.66-3.29-2.07-1.37-3.87-2.68-5.38-3.93-1.95-1.52-3.93-3.12-5.94-4.81-2.01-1.69-3.81-3.52-5.4-5.48-.63-.93-.88-1.85-.74-2.76.13-.91.45-1.82.95-2.73.17-.6.43-1.12.79-1.56l34.23-41.71c1.12-1.37,2.28-2.2,3.47-2.5,1.18-.3,2.39-.25,3.63.15,1.23.4,2.46,1.04,3.7,1.93,1.24.89,2.49,1.86,3.76,2.9.98.8,1.98,1.61,3,2.4,1.02.8,2.03,1.65,3.02,2.54,1.58,1.38,3.14,2.88,4.7,4.53,1.56,1.65,2.88,3.41,3.96,5.28.53.85,1.04,1.83,1.51,2.96.51,1.08.77,2.11.78,3.1.4,2.71.21,5.31-.58,7.82-.79,2.51-2.02,4.69-3.71,6.54-1.69,1.85-3.73,3.27-6.13,4.25-2.4.98-4.99,1.27-7.78.87ZM644.54,249.86c1.6,1.15,3.28,2.24,5.05,3.28,1.77,1.04,3.23,1.46,4.38,1.26,1.28-.26,2.49-.81,3.62-1.64s2.09-1.85,2.87-3.05c.78-1.2,1.33-2.52,1.64-3.94.31-1.42.29-2.77-.06-4.04-.4-1.81-1.23-3.44-2.48-4.92-1.25-1.47-2.58-2.79-4-3.96-.69-.56-1.32-1.06-1.9-1.5-.58-.44-1.13-.77-1.65-.99-.52-.22-1.01-.24-1.49-.06-.48.18-1,.62-1.56,1.3-.95,1.35-1.99,2.63-3.13,3.82-1.14,1.19-2.2,2.38-3.16,3.55-.56.69-1.19,1.42-1.88,2.21-.69.79-.98,1.67-.89,2.65.09.98.58,1.99,1.45,3.03.87,1.04,1.93,2.04,3.2,2.99ZM674.94,215.82c-1.48-1.29-2.71-2.37-3.69-3.21-.98-.85-1.83-1.42-2.53-1.71-.7-.29-1.4-.24-2.08.14-.68.38-1.46,1.16-2.34,2.32-.76.93-1.53,1.84-2.3,2.72-.77.89-1.51,1.77-2.23,2.65-.8.98-1.08,1.96-.82,2.95.25.99.82,1.92,1.69,2.8.87.88,1.88,1.71,3.01,2.47,1.13.77,2.15,1.4,3.05,1.89,2,1.15,3.85,1.67,5.55,1.55,1.7-.12,3.34-1,4.94-2.65,2-2.04,2.68-4.04,2.04-6.01-.64-1.96-2.08-3.93-4.3-5.92Z"/>
    <path class="cls-1" d="M710.6,248.85l-11.37,9.65,2.5,2.87c1.75,1.92,3.29,3.64,4.63,5.17s2.78,3.25,4.36,5.15l.31.36c.5.57.97,1.15,1.43,1.71.45.57.91,1.12,1.37,1.64.45.62.84,1.24,1.18,1.87.34.63.66,1.27.98,1.92.42,1.06.57,2.1.46,3.13-.21,1.02-.69,1.86-1.45,2.53-.24.21-.51.45-.82.72-.31.27-.63.46-.95.57-.61.36-1.36.47-2.24.32-.54.05-1.18-.19-1.9-.74-.73-.46-1.39-.97-1.98-1.55-.73-.54-1.38-1.15-1.96-1.82l-2.93-3.37-11.61-13.19-14.17,12.08,12.27,14.38,2.93,3.37c.33.38.64.74.94,1.07.29.33.54.67.74.99.24.47.48.86.73,1.2.25.33.45.68.6,1.05.31.74.46,1.45.46,2.12-.06.89-.29,1.64-.69,2.24-.2.25-.42.51-.66.76-.24.25-.53.48-.86.68-.76.66-1.67,1.03-2.7,1.09-1.17,0-2.18-.29-3.04-.88-1.3-.63-2.48-1.54-3.52-2.73-.5-.49-1.01-1.01-1.51-1.58-.5-.57-1-1.1-1.51-1.59l-.37-.43c-3.34-3.64-6.71-7.51-10.11-11.61-.83-.96-1.48-1.73-1.96-2.32s-.91-1.12-1.31-1.57c-.4-.45-.8-.92-1.22-1.4-.42-.48-.96-1.1-1.62-1.86-1.05-1.02-1.65-2.09-1.8-3.22-.12-.82-.02-1.62.3-2.4.02-.27.1-.46.24-.59.05-.13.08-.24.09-.33,0-.09.04-.2.09-.33.15-.3.34-.59.56-.87.22-.28.45-.52.69-.73.2-.26.4-.5.62-.73.22-.23.43-.48.62-.73l1.15-1c.19-.17.39-.32.6-.46.21-.14.41-.3.6-.46l5.59-4.87,10.44-8.84,9.53-8.3c1.72-1.5,3.26-2.82,4.62-3.96,1.36-1.14,2.85-2.37,4.46-3.7l.36-.31c.57-.41,1.09-.8,1.56-1.17.47-.37.95-.76,1.43-1.18,1-.78,2.16-1.33,3.48-1.65.55-.14,1.06-.23,1.53-.26.47-.04.97.06,1.5.27,1.05.34,1.91.89,2.58,1.66.33.38.56.69.68.92l.07-.06c.75.86,1.35,1.55,1.81,2.08.46.52.9,1.04,1.34,1.54.44.5.92,1.03,1.44,1.58.52.55,1.22,1.33,2.1,2.33,1.71,1.87,3.32,3.66,4.81,5.38,1.5,1.72,3.01,3.51,4.54,5.36l.25.29c.41.57.86,1.14,1.36,1.71.5.57.95,1.14,1.36,1.71.46.53.85,1.1,1.19,1.73.34.63.64,1.29.91,1.98.47,1.02.64,2.04.53,3.07-.3,1.01-.78,1.81-1.44,2.39-.29.25-.56.49-.82.72-.26.23-.56.4-.88.51-.52.37-1.27.52-2.25.45-.26-.11-.56-.21-.89-.3-.33-.09-.67-.24-1.01-.44-.34-.2-.67-.45-.96-.74-.3-.29-.59-.56-.89-.8-.43-.3-.78-.6-1.05-.91-.27-.31-.57-.66-.91-1.04l-2.81-3.22-12.55-14.27-.21.19Z"/>
    <path class="cls-1" d="M720.56,346.03c-.2.27-.56.57-1.07.88-.51.31-.93.57-1.25.77-.43.26-.88.43-1.36.5-.48.07-.96.07-1.45,0-.95-.09-1.86-.49-2.75-1.21-1.23-1.03-2.19-2.11-2.88-3.24-.42-.56-.83-1.17-1.23-1.81-.4-.65-.85-1.26-1.36-1.84l-.2-.32c-2.61-4.12-5.24-8.41-7.91-12.87-.61-1.11-1.37-2.32-2.28-3.62-.91-1.3-1.69-2.64-2.36-4.02-.66-1.38-1.06-2.75-1.19-4.12-.13-1.37.23-2.62,1.1-3.74.2-.27.41-.51.62-.71.21-.2.45-.39.72-.55,1.7-1.34,3.46-2.53,5.27-3.57,1.81-1.04,3.58-2.09,5.31-3.15l11.84-7.05,10.85-6.66c1.94-1.19,3.68-2.24,5.21-3.14,1.53-.9,3.23-1.89,5.09-2.96l.4-.25c.57-.28,1.14-.57,1.69-.87.56-.3,1.1-.62,1.64-.95,1.31-.65,2.54-1,3.7-1.05,1.01-.17,2,0,2.99.51.92.4,1.67,1.09,2.27,2.06.23.38.44.75.63,1.12.19.37.35.73.5,1.09.14.36.23.73.25,1.13.02.39,0,.84-.08,1.33-.18.56-.46,1.13-.83,1.74-.46.58-.97,1.08-1.53,1.5-.35.29-.66.56-.95.81-.29.25-.6.48-.92.68-.39.09-.75.24-1.07.43s-.62.38-.89.55l-1.46.9-38.32,23.1,9.68,16.13,2.34,3.8c.2.32.4.68.61,1.08.2.39.39.8.57,1.21.21.46.39.88.53,1.23.14.36.26.73.35,1.12.2.69.23,1.34.09,1.95-.17.92-.48,1.63-.92,2.13Z"/>
    <path class="cls-1" d="M739.52,391.33c-.25.24-.65.47-1.2.7-.56.23-1.01.41-1.36.56-.47.19-.94.28-1.43.27-.48,0-.96-.09-1.43-.24-.92-.24-1.76-.79-2.52-1.64-1.04-1.22-1.82-2.44-2.32-3.67-.32-.62-.63-1.28-.91-1.99s-.63-1.38-1.04-2.04l-.14-.35c-1.9-4.49-3.8-9.15-5.71-13.98-.42-1.2-.97-2.51-1.66-3.94-.69-1.43-1.24-2.88-1.67-4.35-.43-1.47-.6-2.89-.51-4.26.09-1.37.66-2.54,1.7-3.51.25-.24.49-.44.73-.6.24-.17.51-.31.8-.43,1.9-1.05,3.83-1.94,5.79-2.67,1.96-.73,3.88-1.48,5.75-2.25l12.83-5.03,11.79-4.81c2.11-.86,3.99-1.61,5.65-2.25,1.65-.64,3.49-1.34,5.51-2.09l.44-.18c.61-.18,1.21-.38,1.81-.59.6-.21,1.19-.43,1.78-.67,1.4-.43,2.67-.58,3.83-.43,1.02,0,1.98.32,2.87.99.84.55,1.47,1.35,1.9,2.4.17.41.31.81.44,1.21.12.39.23.78.32,1.15.08.38.11.76.06,1.16-.04.39-.14.83-.29,1.3-.27.52-.63,1.05-1.1,1.58-.55.5-1.13.91-1.76,1.23-.39.22-.74.44-1.07.64-.33.2-.67.38-1.02.52-.4.03-.78.11-1.13.26-.35.14-.68.27-.97.39l-1.58.65-41.57,16.56,6.93,17.49,1.69,4.13c.14.35.29.74.42,1.16.14.42.26.85.37,1.29.13.49.24.93.33,1.3.08.38.14.76.17,1.16.09.72,0,1.36-.23,1.94-.32.88-.74,1.53-1.26,1.95Z"/>
    <path class="cls-1" d="M804.05,417.23c-.29.14-.59.24-.9.29-.32.05-.68.03-1.1-.05-.92-.01-1.76-.08-2.52-.21-.96-.14-1.81-.4-2.57-.78-.43-.15-.85-.28-1.24-.41-.4-.12-.77-.24-1.12-.34l-1.88-.77-20.13-7.19-3.23-1.4-24.41,6.56c-.34-.04-.66-.02-.97.06-.31.08-.65.14-1.03.18-.34-.04-.65-.05-.95-.04-.29.01-.61,0-.95-.04-.28-.06-.48-.07-.6-.04-.14-.03-.24-.05-.31-.06-.07-.02-.17-.04-.31-.06-.71-.2-1.4-.58-2.07-1.12-1.03-1.17-1.6-2.65-1.69-4.46-.14-1.01-.03-1.83.33-2.45.1-.36.25-.66.45-.91.2-.25.42-.51.68-.77.33-.22.64-.43.91-.64.27-.21.55-.38.84-.52.27-.21.55-.34.82-.42.28-.07.54-.14.78-.21l25.05-6.73,2.58-2.86,13.68-16.46,1.38-1.45c.45-.52.97-1.15,1.56-1.89.54-.67,1.16-1.29,1.86-1.88.3-.34.63-.65.99-.9.36-.26.73-.51,1.13-.74.56-.35,1.17-.54,1.81-.58.84-.03,1.62.16,2.32.56.71.46,1.31.99,1.8,1.58.84.69,1.35,1.61,1.52,2.74.18.67.21,1.29.1,1.84-.11.55-.26,1.12-.43,1.69-.28.67-.6,1.32-.94,1.98-.35.65-.74,1.26-1.18,1.84-.48.65-.92,1.26-1.33,1.83-.41.57-.89,1.16-1.44,1.77l-.29.37c-1.56,1.99-3.08,3.88-4.53,5.64-1.46,1.77-3.04,3.64-4.74,5.6-.09.16-.29.4-.59.75-.3.34-.66.73-1.06,1.17.49.13.94.26,1.33.38.39.12.67.23.82.32,2.46.85,4.78,1.67,6.96,2.46,2.18.79,4.44,1.66,6.8,2.6l.42.08c.68.34,1.37.63,2.05.87.69.24,1.4.52,2.15.85,1.31.5,2.55,1.32,3.71,2.45.93.8,1.63,1.69,2.1,2.68.43,1.13.46,2.2.08,3.22-.15.43-.26.84-.36,1.23-.09.38-.23.73-.41,1.04-.42.64-.99,1.21-1.7,1.73Z"/>
  </g>
  <g>
    <path class="cls-1" d="M321.26,1044.96c2.6,2.39,4.51,5.24,5.74,8.56,1.23,3.31,1.71,6.61,1.43,9.89-.27,3.14-1.26,6.03-2.97,8.66-1.71,2.63-4.3,4.63-7.79,5.99-2.73,1.16-5.43,1.98-8.09,2.46-2.66.48-5.6.86-8.81,1.13-1.43.14-2.65.22-3.64.26-.99.04-2.14.09-3.43.15h-1.38c-.65,0-1.11.04-1.38.1v21.21c-.2,1.3-.46,2.63-.77,4-.31,1.37-1.11,2.42-2.41,3.18-.75.41-1.67.65-2.77.72-1.09.07-2.08.03-2.97-.1-.96-.14-1.76-.39-2.41-.77-.65-.38-1.18-1.04-1.59-2-.27-.62-.53-1.32-.77-2.1-.24-.79-.36-1.76-.36-2.92v-56.67c0-.48.03-.92.1-1.33.07-.41.14-.82.21-1.23.14-.34.24-.72.31-1.13.07-.41.17-.78.31-1.13.14-.34.29-.65.46-.92.17-.27.39-.51.67-.72.34-.34.87-.65,1.59-.92.72-.27,1.79-.41,3.23-.41h.21c2.12-.14,4.47-.26,7.07-.36,2.6-.1,4.75-.05,6.46.15.96.14,1.84.22,2.66.26.82.04,1.6.09,2.36.15.82.07,1.64.14,2.46.21.82.07,1.64.17,2.46.31.68.14,1.31.24,1.9.31.58.07,1.18.17,1.79.31.55.14,1.14.27,1.79.41.65.14,1.25.38,1.79.72,1.43.41,2.63.92,3.59,1.54.96.62,1.95,1.3,2.97,2.05ZM315.11,1061.86c.07-1.64-.26-3.07-.97-4.3s-1.73-2.25-3.02-3.07c-1.3-.82-2.77-1.47-4.41-1.95-1.64-.48-3.28-.82-4.92-1.02-.41,0-.97-.02-1.69-.05-.72-.03-1.49-.07-2.31-.1-.82-.03-1.59-.07-2.31-.1-.72-.03-1.28-.05-1.69-.05-.34-.07-.75-.1-1.23-.1h-1.64c.07,2.12.1,4.15.1,6.1v6.3c-.07,1.23-.1,2.46-.1,3.69v3.59l6.35-.1c1.64,0,3.45-.1,5.43-.31,1.98-.21,3.86-.62,5.64-1.23,1.78-.61,3.29-1.5,4.56-2.66,1.26-1.16,2-2.7,2.2-4.61Z"/>
    <path class="cls-1" d="M354.97,1040.96c4.58-1.71,8.73-2.46,12.45-2.25,3.72.21,7.05,1.14,9.99,2.82,2.94,1.67,5.45,3.91,7.53,6.71,2.08,2.8,3.77,5.94,5.07,9.43,1.02,2.6,1.81,5.33,2.36,8.2.55,2.87.87,5.72.97,8.56.1,2.84,0,5.62-.31,8.35-.31,2.73-.8,5.26-1.49,7.58-.41,1.57-.89,3.01-1.43,4.3-.55,1.3-1.2,2.6-1.95,3.89-1.71,2.94-3.91,5.33-6.61,7.17-2.7,1.84-5.65,3.14-8.86,3.89-2.19.55-4.44.8-6.76.77-2.32-.04-4.61-.34-6.87-.92-2.25-.58-4.42-1.43-6.51-2.56-2.08-1.13-3.98-2.55-5.69-4.25-2.12-2.05-3.86-4.42-5.23-7.12-1.37-2.7-2.43-5.53-3.18-8.5-.75-2.97-1.23-5.96-1.43-8.97-.21-3-.21-5.87,0-8.61.21-2.53.7-5.23,1.49-8.09.78-2.87,1.93-5.64,3.43-8.3,1.5-2.66,3.33-5.07,5.48-7.22,2.15-2.15,4.66-3.77,7.53-4.87ZM378.95,1084.81c.82-3.21,1.16-6.83,1.02-10.86-.14-4.03-.79-7.82-1.95-11.37-.75-2.19-1.69-4.11-2.82-5.79-1.13-1.67-2.46-2.95-4-3.84-1.54-.89-3.33-1.33-5.38-1.33s-4.34.61-6.87,1.84c-1.5.75-2.78,1.78-3.84,3.07-1.06,1.3-1.91,2.77-2.56,4.41-.65,1.64-1.16,3.35-1.54,5.12-.38,1.78-.6,3.48-.67,5.12-.14,1.78-.17,3.64-.1,5.58.07,1.95.29,3.89.67,5.84.37,1.95.9,3.79,1.59,5.53.68,1.74,1.6,3.3,2.77,4.66,1.78,2.05,3.84,3.47,6.2,4.25,2.36.79,4.7.91,7.02.36,3.76-.82,6.63-3.31,8.61-7.48.82-1.5,1.43-3.21,1.84-5.12Z"/>
    <path class="cls-1" d="M454.57,1106.54c.07.68,0,1.33-.21,1.95-.14.41-.32.75-.56,1.02-.24.27-.53.55-.87.82-.61.41-1.37.79-2.25,1.13-.55.14-1.08.26-1.59.36s-1.04.08-1.59-.05c-1.09-.07-2.05-.48-2.87-1.23-1.16-.96-2.12-2.02-2.87-3.18-.34-.55-.72-1.16-1.13-1.84-.41-.68-.79-1.4-1.13-2.15l-11.37-21.62c-.55,0-1.09.02-1.64.05-.55.04-1.09.09-1.64.15-1.43.14-2.78.17-4.05.1-1.26-.07-2.58-.07-3.94,0h-1.95v18.55c0,.55-.02,1.06-.05,1.54-.04.48-.05.99-.05,1.54,0,.34-.02.78-.05,1.33-.04.55-.09,1.06-.15,1.54-.14.75-.45,1.52-.92,2.31-.48.78-1.13,1.45-1.95,2-1.43.89-3.18,1.13-5.23.72-.89-.2-1.74-.55-2.56-1.02-.27-.21-.51-.46-.72-.77s-.38-.63-.51-.97c-.14-.34-.26-.7-.36-1.08-.1-.38-.22-.74-.36-1.08-.21-.68-.31-1.33-.31-1.95v-58.2c0-.41.02-.84.05-1.28.03-.44.08-.84.15-1.18.07-.75.31-1.5.72-2.25.21-.82.55-1.4,1.02-1.74.41-.41,1.04-.77,1.9-1.08.85-.31,2.1-.43,3.74-.36,3.07.07,6.11.1,9.12.1s6.01.07,9.02.21c1.98.14,4.08.36,6.3.67,2.22.31,4.29.84,6.2,1.59,1.23.48,2.36.96,3.38,1.43,1.3.75,2.32,1.47,3.07,2.15,2.39,2.19,4.2,4.82,5.43,7.89s1.84,6.18,1.84,9.33c0,3.69-.87,7.07-2.61,10.14-1.74,3.07-4.53,5.36-8.35,6.87-.14.14-.33.22-.56.26-.24.04-.43.09-.56.15l9.43,18.96.92,1.64c.14.27.31.58.51.92.21.34.37.68.51,1.02.21.34.39.72.56,1.13.17.41.36.79.56,1.13.21.96.37,1.74.51,2.36ZM428.95,1070.06c1.23,0,2.41-.22,3.54-.67,1.13-.44,2.15-1.04,3.07-1.79.92-.75,1.69-1.62,2.31-2.61.61-.99.96-2.07,1.02-3.23.27-3.42-.61-5.96-2.66-7.63-2.05-1.67-4.75-2.58-8.09-2.72-1.98-.14-4.15-.21-6.51-.21h-6.71c.07,2.8.08,5.65.05,8.56-.04,2.9-.05,6.34-.05,10.3h14.04Z"/>
    <path class="cls-1" d="M512.46,1103.67c.55,1.02.58,2.05.1,3.07-.34,1.09-.92,1.91-1.74,2.46-.41.34-.79.63-1.13.87-.34.24-.72.43-1.13.56-.75.41-1.64.55-2.66.41-.41,0-.79-.07-1.13-.21-.34-.14-.68-.31-1.02-.51-.34-.21-.7-.43-1.08-.67-.38-.24-.73-.5-1.08-.77-.41-.34-.79-.65-1.13-.92-.34-.27-.65-.58-.92-.92-.34-.34-.65-.68-.92-1.03-.27-.34-.55-.65-.82-.92l-1.23-1.33-19.67-20.6.31,20.6v.92c0,.27-.04.56-.1.87-.07.31-.14.63-.21.97-.21.89-.45,1.67-.72,2.36-.14.41-.33.75-.56,1.03-.24.27-.5.55-.77.82-.75.68-1.64,1.06-2.67,1.13-1.02.34-1.96.46-2.82.36-.86-.1-1.73-.36-2.61-.77-.68-.41-1.3-1.09-1.84-2.05-.14-.27-.24-.45-.31-.51,0-.07-.07-.31-.21-.72-.41-.68-.61-1.37-.61-2.05-.07-.41-.12-.79-.15-1.13-.04-.34-.09-.72-.15-1.13-.07-.27-.1-.55-.1-.82v-.82c.07-.34.1-.63.1-.87v-.87l-.1-8.09-.1-15.06c0-4.37-.1-9.08-.31-14.14-.07-2.46-.1-4.64-.1-6.56s.03-4.06.1-6.46v-.41c.14-.75.21-1.49.21-2.2s.03-1.42.1-2.1c0-1.37.31-2.73.92-4.1.41-1.02,1.13-1.84,2.15-2.46.55-.34,1.08-.56,1.59-.67s1.08-.22,1.69-.36c.48,0,.94.04,1.38.1.44.07.87.14,1.28.2.89.14,1.71.51,2.46,1.13.21.21.39.44.56.72.17.27.32.62.46,1.02.34.55.58,1.33.72,2.36.07.41.12.82.15,1.23.03.41.05.85.05,1.33v4.2l.1,12.5c1.09-.96,2.17-1.95,3.23-2.97,1.06-1.02,2.1-2.12,3.13-3.28,1.84-1.91,3.67-3.77,5.48-5.58s3.64-3.6,5.48-5.38l.31-.31c.55-.55,1.11-1.08,1.69-1.59.58-.51,1.14-1.01,1.69-1.49,1.03-1.16,2.29-1.98,3.79-2.46.96-.61,2.08-.85,3.38-.72.62.07,1.18.21,1.69.41.51.21,1.01.48,1.49.82.34.34.68.63,1.02.87.34.24.62.53.82.87.55.48.89,1.2,1.02,2.15,0,.75-.14,1.43-.41,2.05-.21.34-.41.68-.61,1.02-.21.34-.45.68-.72,1.02-.34.41-.65.79-.92,1.13-.27.34-.58.68-.92,1.02-.27.34-.56.65-.87.92-.31.27-.6.58-.87.92l-1.33,1.33-19.16,19.57c1.03,1.02,2.1,2.1,3.23,3.23,1.13,1.13,2.2,2.22,3.23,3.28,1.02,1.06,1.98,2.05,2.87,2.97.89.92,1.64,1.69,2.25,2.31,1.84,1.91,3.62,3.81,5.33,5.69,1.71,1.88,3.38,3.78,5.02,5.69l.31.31c.55.55,1.06,1.11,1.54,1.69.48.58.92,1.15,1.33,1.69,1.03,1.16,1.74,2.42,2.15,3.79Z"/>
    <path class="cls-1" d="M535.21,1050.8l-.21,16.09h4.1c2.8-.07,5.29-.1,7.48-.1s4.61.04,7.28.1h.51c.82,0,1.62.02,2.41.05.79.04,1.55.05,2.31.05.82.07,1.6.19,2.36.36.75.17,1.5.36,2.25.56,1.16.41,2.12,1.03,2.87,1.84.68.89,1.02,1.88,1.02,2.97v1.18c0,.44-.07.84-.21,1.18-.14.75-.58,1.43-1.33,2.05-.34.48-.99.82-1.95,1.02-.89.27-1.78.45-2.66.51-.96.21-1.91.31-2.87.31h-4.82l-18.96.1-.2,20.08,20.39.21h6.35c.48,0,.92.04,1.33.1.55.14,1.04.22,1.49.26.44.04.87.12,1.28.26.82.27,1.5.65,2.05,1.13.68.68,1.13,1.4,1.33,2.15.07.34.12.7.15,1.08.03.38.02.77-.05,1.18,0,1.09-.34,2.08-1.02,2.97-.82.96-1.78,1.57-2.87,1.84-1.43.62-3.01.92-4.71.92-.75.07-1.54.1-2.36.1s-1.61.03-2.36.1h-.62c-5.33.14-10.86.14-16.6,0-1.37,0-2.46-.02-3.28-.05-.82-.04-1.55-.05-2.2-.05h-4.66c-1.57.14-2.87-.14-3.89-.82-.75-.48-1.33-1.13-1.74-1.95-.21-.2-.31-.41-.31-.61-.07-.14-.14-.24-.21-.31s-.14-.17-.2-.31c-.14-.34-.24-.7-.31-1.08-.07-.38-.1-.74-.1-1.08-.07-.34-.12-.68-.15-1.02-.04-.34-.09-.68-.15-1.03v-1.64c0-.27.02-.55.05-.82.03-.27.05-.55.05-.82v-7.99l.21-14.75v-13.63c0-2.46.02-4.64.05-6.56.03-1.91.08-4,.15-6.25v-.51c.07-.75.12-1.45.15-2.1.03-.65.05-1.31.05-2,.07-1.37.44-2.7,1.13-4,.27-.55.56-1.03.87-1.43.31-.41.73-.75,1.28-1.03,1.03-.61,2.08-.92,3.18-.92.55,0,.96.04,1.23.1v-.1h5.17c.72,0,1.49-.02,2.31-.05.82-.03,1.95-.05,3.38-.05,2.73-.07,5.33-.1,7.79-.1s4.99.04,7.58.1h.41c.75.07,1.54.1,2.36.1s1.6.04,2.36.1c.75,0,1.5.09,2.25.26.75.17,1.5.39,2.25.67,1.16.34,2.12.92,2.87,1.74.61.96.92,1.91.92,2.87v1.18c0,.38-.07.73-.21,1.08-.07.68-.48,1.4-1.23,2.15-.27.14-.56.31-.87.51-.31.2-.67.38-1.08.51-.41.14-.84.22-1.28.26-.45.04-.87.09-1.28.15-.55.14-1.04.21-1.49.21h-6.1l-20.49.1v.31Z"/>
    <path class="cls-1" d="M630.3,1106.54c.07.68,0,1.33-.21,1.95-.14.41-.33.75-.56,1.02-.24.27-.53.55-.87.82-.62.41-1.37.79-2.25,1.13-.55.14-1.08.26-1.59.36s-1.04.08-1.59-.05c-1.09-.07-2.05-.48-2.87-1.23-1.16-.96-2.12-2.02-2.87-3.18-.34-.55-.72-1.16-1.13-1.84-.41-.68-.79-1.4-1.13-2.15l-11.37-21.62c-.55,0-1.09.02-1.64.05-.55.04-1.09.09-1.64.15-1.43.14-2.78.17-4.05.1-1.26-.07-2.58-.07-3.95,0h-1.95v18.55c0,.55-.02,1.06-.05,1.54-.04.48-.05.99-.05,1.54,0,.34-.02.78-.05,1.33-.04.55-.09,1.06-.15,1.54-.14.75-.45,1.52-.92,2.31-.48.78-1.13,1.45-1.95,2-1.43.89-3.18,1.13-5.23.72-.89-.2-1.74-.55-2.56-1.02-.27-.21-.51-.46-.72-.77s-.38-.63-.51-.97c-.14-.34-.26-.7-.36-1.08-.1-.38-.22-.74-.36-1.08-.21-.68-.31-1.33-.31-1.95v-58.2c0-.41.02-.84.05-1.28.03-.44.08-.84.15-1.18.07-.75.31-1.5.72-2.25.21-.82.55-1.4,1.03-1.74.41-.41,1.04-.77,1.9-1.08.85-.31,2.1-.43,3.74-.36,3.07.07,6.11.1,9.12.1s6.01.07,9.02.21c1.98.14,4.08.36,6.3.67,2.22.31,4.29.84,6.2,1.59,1.23.48,2.36.96,3.38,1.43,1.3.75,2.32,1.47,3.07,2.15,2.39,2.19,4.2,4.82,5.43,7.89,1.23,3.07,1.84,6.18,1.84,9.33,0,3.69-.87,7.07-2.61,10.14-1.74,3.07-4.53,5.36-8.35,6.87-.14.14-.33.22-.56.26-.24.04-.43.09-.56.15l9.43,18.96.92,1.64c.14.27.31.58.51.92.21.34.38.68.51,1.02.21.34.39.72.56,1.13.17.41.36.79.56,1.13.21.96.38,1.74.51,2.36ZM604.68,1070.06c1.23,0,2.41-.22,3.54-.67,1.13-.44,2.15-1.04,3.07-1.79.92-.75,1.69-1.62,2.3-2.61.62-.99.96-2.07,1.03-3.23.27-3.42-.62-5.96-2.66-7.63-2.05-1.67-4.75-2.58-8.1-2.72-1.98-.14-4.15-.21-6.51-.21h-6.71c.07,2.8.08,5.65.05,8.56-.04,2.9-.05,6.34-.05,10.3h14.04Z"/>
    <path class="cls-1" d="M384.64,1164.54c.61.82.99,1.78,1.13,2.87,0,.41-.02.8-.05,1.18-.04.38-.09.73-.15,1.08-.07.75-.51,1.47-1.33,2.15-.48.34-1.09.68-1.84,1.02-.41.14-.84.22-1.28.26-.44.04-.94.09-1.49.15-.41.14-.85.21-1.33.21h-6.05l-21.42.1v.31l-.1,16.7h1.79c.65,0,1.45-.03,2.41-.1h7.33c2.15,0,4.52.04,7.12.1h.61c.75,0,1.52.02,2.31.05.78.04,1.59.05,2.41.05.75.07,1.5.15,2.25.26.75.1,1.5.29,2.25.56,1.23.41,2.12,1.06,2.66,1.95.75.89,1.13,1.81,1.13,2.77v1.18c0,.38-.07.77-.21,1.18-.07.55-.51,1.23-1.33,2.05-.55.48-1.2.79-1.95.92-.34.14-.74.26-1.18.36-.44.1-.91.19-1.38.26-.48.07-.94.12-1.38.15-.44.04-.94.05-1.49.05h-4.71l-18.85.1-.31,23.77v.82c0,.34-.02.67-.05.97-.04.31-.09.63-.15.97-.14.34-.26.7-.36,1.08-.1.38-.22.73-.36,1.08-.48.96-.92,1.6-1.33,1.95-.75.55-1.67.92-2.77,1.13-1.84.41-3.59.2-5.23-.62-.34-.21-.67-.46-.97-.77s-.56-.7-.77-1.18c-.14-.27-.21-.48-.21-.61l-.31-.62c-.21-.34-.34-.7-.41-1.08-.07-.38-.14-.74-.2-1.08,0-.34-.02-.68-.05-1.02-.04-.34-.09-.68-.15-1.03-.07-.55-.07-1.09,0-1.64v-1.64l.1-7.99.1-14.75c.07-2.19.1-4.41.1-6.66v-6.97c-.07-2.46-.09-4.64-.05-6.56.03-1.91.12-4,.26-6.25v-.51c.07-.75.1-1.45.1-2.1s.07-1.31.21-2c.14-1.5.48-2.83,1.02-4,.48-1.16,1.16-1.98,2.05-2.46,1.02-.61,2.12-.92,3.28-.92.55,0,.99.04,1.33.1v-.1h5.12c.68,0,1.43-.02,2.25-.05.82-.03,1.91-.05,3.28-.05,5.46-.07,10.86-.07,16.19,0h.51c.75.07,1.52.1,2.31.1s1.59.04,2.41.1c.75,0,1.5.09,2.25.26.75.17,1.5.39,2.25.67,1.16.34,2.05.92,2.66,1.74Z"/>
    <path class="cls-1" d="M513.54,1216.79c.89,1.98.92,3.91.1,5.79-.82,1.88-2.12,3.6-3.89,5.17-1.78,1.57-3.81,2.94-6.1,4.1-2.29,1.16-4.46,1.98-6.51,2.46-2.25.48-4.63.7-7.12.67-2.5-.04-4.99-.34-7.48-.92-2.49-.58-4.92-1.43-7.28-2.56-2.36-1.13-4.53-2.51-6.51-4.15-2.39-1.98-4.25-4.35-5.58-7.12-1.33-2.77-2.3-5.72-2.92-8.86-.62-3.14-.94-6.3-.97-9.48-.04-3.18.05-6.16.26-8.97.2-2.53.72-5.16,1.54-7.89.82-2.73,1.96-5.41,3.43-8.04,1.47-2.63,3.24-5.07,5.33-7.33,2.08-2.25,4.53-4.17,7.33-5.74,2.12-1.23,4.49-2.06,7.12-2.51,2.63-.44,5.29-.55,7.99-.31,2.7.24,5.26.82,7.69,1.74,2.42.92,4.49,2.17,6.2,3.74,1.09.96,2.24,2.29,3.43,4,1.2,1.71,2.07,3.45,2.61,5.23.54,1.78.56,3.43.05,4.97-.51,1.54-1.89,2.58-4.15,3.12-.96.27-1.81.33-2.56.15-.75-.17-1.44-.48-2.05-.92-.62-.44-1.2-.97-1.74-1.59-.55-.62-1.06-1.23-1.54-1.84-1.64-1.98-3.55-3.33-5.74-4.05-2.19-.72-4.36-.89-6.51-.51-2.15.38-4.17,1.26-6.04,2.66-1.88,1.4-3.33,3.19-4.36,5.38-1.09,2.32-1.96,4.87-2.61,7.63s-1.01,5.57-1.07,8.4c-.07,2.83.19,5.58.77,8.25.58,2.66,1.59,5.02,3.02,7.07,1.09,1.64,2.44,2.97,4.05,4,1.6,1.02,3.33,1.74,5.17,2.15,1.85.41,3.71.48,5.59.21,1.88-.27,3.71-.89,5.48-1.84.54-.27,1.14-.67,1.79-1.18.65-.51,1.31-1.04,2-1.59.68-.55,1.38-1.06,2.1-1.54.72-.48,1.49-.82,2.31-1.02,1.23-.41,2.58-.37,4.05.1,1.47.48,2.58,1.47,3.33,2.97Z"/>
    <path class="cls-1" d="M536.49,1173.76l-.21,16.09h4.1c2.8-.07,5.29-.1,7.48-.1s4.61.04,7.28.1h.51c.82,0,1.62.02,2.41.05.79.04,1.55.05,2.31.05.82.07,1.6.19,2.36.36.75.17,1.5.36,2.25.56,1.16.41,2.12,1.03,2.87,1.84.68.89,1.02,1.88,1.02,2.97v1.18c0,.44-.07.84-.21,1.18-.14.75-.58,1.43-1.33,2.05-.34.48-.99.82-1.95,1.02-.89.27-1.78.45-2.66.51-.96.21-1.91.31-2.87.31h-4.82l-18.96.1-.2,20.08,20.39.21h6.35c.48,0,.92.04,1.33.1.55.14,1.04.22,1.49.26.44.04.87.12,1.28.26.82.27,1.5.65,2.05,1.13.68.68,1.13,1.4,1.33,2.15.07.34.12.7.15,1.08.03.38.02.77-.05,1.18,0,1.09-.34,2.08-1.02,2.97-.82.96-1.78,1.57-2.87,1.84-1.43.62-3.01.92-4.71.92-.75.07-1.54.1-2.36.1s-1.61.03-2.36.1h-.62c-5.33.14-10.86.14-16.6,0-1.37,0-2.46-.02-3.28-.05-.82-.04-1.55-.05-2.2-.05h-4.66c-1.57.14-2.87-.14-3.89-.82-.75-.48-1.33-1.13-1.74-1.95-.21-.2-.31-.41-.31-.61-.07-.14-.14-.24-.21-.31s-.14-.17-.2-.31c-.14-.34-.24-.7-.31-1.08-.07-.38-.1-.74-.1-1.08-.07-.34-.12-.68-.15-1.02-.04-.34-.09-.68-.15-1.03v-1.64c0-.27.02-.55.05-.82.03-.27.05-.55.05-.82v-7.99l.21-14.75v-13.63c0-2.46.02-4.64.05-6.56.03-1.91.08-4,.15-6.25v-.51c.07-.75.12-1.45.15-2.1.03-.65.05-1.31.05-2,.07-1.37.44-2.7,1.13-4,.27-.55.56-1.03.87-1.43.31-.41.73-.75,1.28-1.03,1.03-.61,2.08-.92,3.18-.92.55,0,.96.04,1.23.1v-.1h5.17c.72,0,1.49-.02,2.31-.05.82-.03,1.95-.05,3.38-.05,2.73-.07,5.33-.1,7.79-.1s4.99.04,7.58.1h.41c.75.07,1.54.1,2.36.1s1.6.04,2.36.1c.75,0,1.5.09,2.25.26.75.17,1.5.39,2.25.67,1.16.34,2.12.92,2.87,1.74.61.96.92,1.91.92,2.87v1.18c0,.38-.07.73-.21,1.08-.07.68-.48,1.4-1.23,2.15-.27.14-.56.31-.87.51-.31.2-.67.38-1.08.51-.41.14-.84.22-1.28.26-.45.04-.87.09-1.28.15-.55.14-1.04.21-1.49.21h-6.1l-20.49.1v.31Z"/>
  </g>
  <path class="cls-1" d="M448.35,1218.26c-11.52,13.6-23.02,4.06-23.45,3.7l10.35,12.98h-15.25v.06h-15.25l10.35-12.98c-.43.36-11.94,9.89-23.45-3.7-11.73-13.85,28.35-57.26,28.35-57.26v-.06s40.08,43.41,28.35,57.26Z"/>
</svg>