<?xml version="1.0" encoding="UTF-8"?>
<svg id="Layer_1" data-name="Layer 1" xmlns="http://www.w3.org/2000/svg" viewBox="0 0 875.96 770.9">
  <defs>
    <style>
      .cls-1 {
        fill: #e60e95;
      }
    </style>
  </defs>
  <path class="cls-1" d="M51.93,393.71c-.29-25.47.91-51.03,2.7-76.43,3.38-48.01,9.24-96.68,23.55-142.8,8.52-27.46,21.28-53.81,34.95-79.04,11.2-20.65,23.8-41.63,41.51-57.4,10.99-9.79,25.91-17.38,40.99-14.09,19.39,4.23,34.67,24.22,46.36,38.79,14.68,18.31,26.96,38.96,43.23,55.95,8.67,9.05,19.62,16.29,29.99,23.25,4.03,2.7,8.13,5.47,12.73,7.12,14.12,5.05,20.2-17.42,6.18-22.43,2.24.8,2.48,1.36.22-.12-2.69-1.75-5.48-3.35-8.14-5.16-9.25-6.27-18.71-12.68-26.26-20.98-14.99-16.46-26.88-35.72-40.74-53.12-13.99-17.56-30.43-36.23-52.12-44.11-17.44-6.34-37.23-2.6-52.93,6.59-19.26,11.27-33.71,29.72-45.76,48.08-17.59,26.79-31.6,56.33-43.82,85.9-19.49,47.16-26.56,99.48-31.28,149.95-3.1,33.18-5.01,66.7-4.63,100.04.17,14.96,23.43,15,23.26,0h0Z"/>
  <path class="cls-1" d="M362.06,157.24c18.74.9,37.5,1.56,56.26,2.03,24.91.63,50.61,2.16,75.41-.92,26.94-3.34,49.25-17.05,68.85-35.33,25.27-23.57,48.84-49.09,77.25-69.03,21.92-15.39,49.77-30.23,75.03-22.29,18.43,5.79,34.33,22.89,45.84,39.62,19.79,28.75,33.34,61.59,44.9,94.35,16.59,47.02,30.47,95.78,38.77,144.97,14.94,88.53,12.4,185.2-19.47,269.97-11.23,29.87-27.11,56.97-51.38,78.05-31.51,27.37-71.55,44.61-111.15,56.52-74.09,22.29-152.2,22.65-228.81,28.29-74.94,5.52-152.05,8.64-225.7-9.04-74.64-17.92-149.08-62.98-174.82-139.23-16.54-49.01-10.92-103.42,8.64-150.72-1.15,2.79,1.16-2.58,1.73-3.83.35-.78.72-1.54,1.11-2.3,6.79-13.31-13.27-25.09-20.08-11.74C5.76,463.21-2.18,508.09.51,548.79c5.47,82.58,60.4,149.79,133.85,184.54,72.74,34.42,155.62,39.59,234.89,37,37.26-1.22,74.39-4.41,111.55-7.29,38.72-3,77.52-3.61,115.98-9.44,46.05-6.98,91.64-19.56,133.64-39.91,35.1-17.01,68.14-40.49,90.23-73.14,19.94-29.47,32.08-64.49,40.42-98.83,10.99-45.26,15.46-92.25,14.82-138.77-.75-55.02-9.17-109.42-23.26-162.54-11.9-44.88-25.74-89.53-44.94-131.89-19.66-43.39-52.57-101.68-107.24-102.5-37.06-.56-70.91,24.96-97.84,47.66-14.27,12.03-27.72,24.98-41.06,38.01-11.4,11.13-22.68,22.91-36.13,31.61-9.51,6.15-20.53,8.74-31.38,11.62-.66.18-1.35.25-2.02.38-1.85.36,3.05-.35-.36.05-2.49.29-4.99.45-7.49.6-5.94.35-11.89.48-17.84.56-29.1.38-58.24-.63-87.32-1.79-5.65-.23-11.3-.46-16.95-.73-14.96-.72-14.93,22.54,0,23.26h0Z"/>
  <path class="cls-1" d="M334.14,711.3c29.31-8.86,59.46-15.41,89.52-21.12,63.25-12.03,127.92-18.83,192.33-15.4,14.96.8,14.91-22.47,0-23.26-65.54-3.48-131.43,3.65-195.81,15.72-30.96,5.81-62.04,12.5-92.22,21.63-14.29,4.32-8.2,26.78,6.18,22.43h0Z"/>
  <path class="cls-1" d="M577.04,541.16c.67,18.48-11.28,33.35-25.07,44.39-20.03,16.04-45.14,25.57-69.81,31.7-54.2,13.46-120.23,13.45-170.64-13.42-15.76-8.4-32.83-21.08-36.88-39.57-3.76-17.2,6.29-32.77,18.33-44.09,40.01-37.61,105.29-47.11,157.82-44.87,29.8,1.27,60.87,6.88,87.53,20.8,17.38,9.07,37.11,23.75,38.71,45.07,1.11,14.83,24.38,14.96,23.26,0-4.24-56.48-72.37-79.62-119.47-86.28-63.86-9.04-140.33-.37-193.2,39.62-18.67,14.12-34.73,33.47-36.83,57.63-1.96,22.61,10.42,43.33,27.4,57.32,49.42,40.73,124.65,44.66,185.15,35.24,34.71-5.4,70.59-16.75,99.02-37.99,20.97-15.67,38.93-38.03,37.93-65.55-.54-14.92-23.8-15-23.26,0Z"/>
  <circle class="cls-1" cx="255.46" cy="420.85" r="17.44"/>
  <circle class="cls-1" cx="577.22" cy="424.73" r="17.44"/>
  <ellipse class="cls-1" cx="375.63" cy="557.5" rx="13.57" ry="18.41" transform="translate(-114.53 97.45) rotate(-12.84)"/>
  <ellipse class="cls-1" cx="453.62" cy="553.91" rx="18.41" ry="13.57" transform="translate(-124.11 976.77) rotate(-86.89)"/>
</svg>